<mxfile host="Electron" agent="Mozilla/5.0 (Windows NT 10.0; Win64; x64) AppleWebKit/537.36 (KHTML, like Gecko) draw.io/25.0.2 Chrome/128.0.6613.186 Electron/32.2.5 Safari/537.36" version="25.0.2">
  <diagram name="Page-1" id="ztxLvGnU_Lc2w6j8MkgF">
    <mxGraphModel dx="1050" dy="655" grid="1" gridSize="10" guides="1" tooltips="1" connect="1" arrows="1" fold="1" page="1" pageScale="1" pageWidth="850" pageHeight="1100" math="0" shadow="0">
      <root>
        <mxCell id="0" />
        <mxCell id="1" parent="0" />
        <mxCell id="nry7JoKtRvL3NIZeIg0n-1" value="" style="rounded=0;whiteSpace=wrap;html=1;" vertex="1" parent="1">
          <mxGeometry x="125" y="120" width="790" height="470" as="geometry" />
        </mxCell>
        <mxCell id="nry7JoKtRvL3NIZeIg0n-2" value="" style="rounded=1;whiteSpace=wrap;html=1;" vertex="1" parent="1">
          <mxGeometry x="140" y="140" width="760" height="50" as="geometry" />
        </mxCell>
        <mxCell id="nry7JoKtRvL3NIZeIg0n-3" value="" style="endArrow=none;html=1;rounded=0;" edge="1" parent="1">
          <mxGeometry width="50" height="50" relative="1" as="geometry">
            <mxPoint x="160" y="154.83" as="sourcePoint" />
            <mxPoint x="180" y="154.83" as="targetPoint" />
          </mxGeometry>
        </mxCell>
        <mxCell id="nry7JoKtRvL3NIZeIg0n-4" value="" style="endArrow=none;html=1;rounded=0;" edge="1" parent="1">
          <mxGeometry width="50" height="50" relative="1" as="geometry">
            <mxPoint x="160" y="164.83" as="sourcePoint" />
            <mxPoint x="180" y="164.83" as="targetPoint" />
          </mxGeometry>
        </mxCell>
        <mxCell id="nry7JoKtRvL3NIZeIg0n-5" value="" style="endArrow=none;html=1;rounded=0;" edge="1" parent="1">
          <mxGeometry width="50" height="50" relative="1" as="geometry">
            <mxPoint x="160" y="174.83" as="sourcePoint" />
            <mxPoint x="180" y="174.83" as="targetPoint" />
          </mxGeometry>
        </mxCell>
        <mxCell id="nry7JoKtRvL3NIZeIg0n-6" value="Home" style="text;html=1;align=center;verticalAlign=middle;whiteSpace=wrap;rounded=0;" vertex="1" parent="1">
          <mxGeometry x="210" y="150" width="60" height="30" as="geometry" />
        </mxCell>
        <mxCell id="nry7JoKtRvL3NIZeIg0n-7" value="Logout" style="text;html=1;align=center;verticalAlign=middle;whiteSpace=wrap;rounded=0;" vertex="1" parent="1">
          <mxGeometry x="290" y="150" width="60" height="30" as="geometry" />
        </mxCell>
        <mxCell id="nry7JoKtRvL3NIZeIg0n-8" value="" style="rounded=1;whiteSpace=wrap;html=1;" vertex="1" parent="1">
          <mxGeometry x="150" y="220" width="740" height="350" as="geometry" />
        </mxCell>
        <mxCell id="nry7JoKtRvL3NIZeIg0n-51" value="&lt;h1 style=&quot;margin-top: 0px;&quot;&gt;&lt;font style=&quot;font-size: 20px;&quot;&gt;Add Medicines&lt;/font&gt;&lt;/h1&gt;" style="text;html=1;whiteSpace=wrap;overflow=hidden;rounded=0;align=center;" vertex="1" parent="1">
          <mxGeometry x="430" y="230" width="180" height="40" as="geometry" />
        </mxCell>
        <mxCell id="nry7JoKtRvL3NIZeIg0n-56" value="" style="rounded=1;whiteSpace=wrap;html=1;" vertex="1" parent="1">
          <mxGeometry x="180" y="365" width="260" height="30" as="geometry" />
        </mxCell>
        <mxCell id="nry7JoKtRvL3NIZeIg0n-57" value="Price per unit *" style="text;html=1;align=left;verticalAlign=middle;whiteSpace=wrap;rounded=0;" vertex="1" parent="1">
          <mxGeometry x="190" y="365" width="250" height="30" as="geometry" />
        </mxCell>
        <mxCell id="nry7JoKtRvL3NIZeIg0n-58" value="" style="rounded=1;whiteSpace=wrap;html=1;" vertex="1" parent="1">
          <mxGeometry x="180" y="330" width="260" height="30" as="geometry" />
        </mxCell>
        <mxCell id="nry7JoKtRvL3NIZeIg0n-59" value="Stock *" style="text;html=1;align=left;verticalAlign=middle;whiteSpace=wrap;rounded=0;" vertex="1" parent="1">
          <mxGeometry x="190" y="330" width="250" height="30" as="geometry" />
        </mxCell>
        <mxCell id="nry7JoKtRvL3NIZeIg0n-60" value="" style="rounded=1;whiteSpace=wrap;html=1;" vertex="1" parent="1">
          <mxGeometry x="180" y="290" width="260" height="30" as="geometry" />
        </mxCell>
        <mxCell id="nry7JoKtRvL3NIZeIg0n-61" value="Name *" style="text;html=1;align=left;verticalAlign=middle;whiteSpace=wrap;rounded=0;" vertex="1" parent="1">
          <mxGeometry x="190" y="290" width="250" height="30" as="geometry" />
        </mxCell>
        <mxCell id="nry7JoKtRvL3NIZeIg0n-62" value="" style="rounded=1;whiteSpace=wrap;html=1;" vertex="1" parent="1">
          <mxGeometry x="180" y="400" width="260" height="30" as="geometry" />
        </mxCell>
        <mxCell id="nry7JoKtRvL3NIZeIg0n-63" value="Manufacturer *&lt;span style=&quot;color: rgba(0, 0, 0, 0); font-family: monospace; font-size: 0px; text-wrap: nowrap;&quot;&gt;%3CmxGraphModel%3E%3Croot%3E%3CmxCell%20id%3D%220%22%2F%3E%3CmxCell%20id%3D%221%22%20parent%3D%220%22%2F%3E%3CmxCell%20id%3D%222%22%20value%3D%22%22%20style%3D%22rounded%3D1%3BwhiteSpace%3Dwrap%3Bhtml%3D1%3B%22%20vertex%3D%221%22%20parent%3D%221%22%3E%3CmxGeometry%20x%3D%22180%22%20y%3D%22365%22%20width%3D%22260%22%20height%3D%2230%22%20as%3D%22geometry%22%2F%3E%3C%2FmxCell%3E%3CmxCell%20id%3D%223%22%20value%3D%22Price%20per%20unit%26amp%3Bnbsp%3B%22%20style%3D%22text%3Bhtml%3D1%3Balign%3Dleft%3BverticalAlign%3Dmiddle%3BwhiteSpace%3Dwrap%3Brounded%3D0%3B%22%20vertex%3D%221%22%20parent%3D%221%22%3E%3CmxGeometry%20x%3D%22190%22%20y%3D%22365%22%20width%3D%22250%22%20height%3D%2230%22%20as%3D%22geometry%22%2F%3E%3C%2FmxCell%3E%3C%2Froot%3E%3C%2FmxGraphModel%3E&lt;/span&gt;&lt;span style=&quot;color: rgba(0, 0, 0, 0); font-family: monospace; font-size: 0px; text-wrap: nowrap;&quot;&gt;%3CmxGraphModel%3E%3Croot%3E%3CmxCell%20id%3D%220%22%2F%3E%3CmxCell%20id%3D%221%22%20parent%3D%220%22%2F%3E%3CmxCell%20id%3D%222%22%20value%3D%22%22%20style%3D%22rounded%3D1%3BwhiteSpace%3Dwrap%3Bhtml%3D1%3B%22%20vertex%3D%221%22%20parent%3D%221%22%3E%3CmxGeometry%20x%3D%22180%22%20y%3D%22365%22%20width%3D%22260%22%20height%3D%2230%22%20as%3D%22geometry%22%2F%3E%3C%2FmxCell%3E%3CmxCell%20id%3D%223%22%20value%3D%22Price%20per%20unit%26amp%3Bnbsp%3B%22%20style%3D%22text%3Bhtml%3D1%3Balign%3Dleft%3BverticalAlign%3Dmiddle%3BwhiteSpace%3Dwrap%3Brounded%3D0%3B%22%20vertex%3D%221%22%20parent%3D%221%22%3E%3CmxGeometry%20x%3D%22190%22%20y%3D%22365%22%20width%3D%22250%22%20height%3D%2230%22%20as%3D%22geometry%22%2F%3E%3C%2FmxCell%3E%3C%2Froot%3E%3C%2FmxGraphModel%3E&lt;/span&gt;" style="text;html=1;align=left;verticalAlign=middle;whiteSpace=wrap;rounded=0;" vertex="1" parent="1">
          <mxGeometry x="190" y="400" width="250" height="30" as="geometry" />
        </mxCell>
        <mxCell id="nry7JoKtRvL3NIZeIg0n-64" value="" style="rounded=1;whiteSpace=wrap;html=1;" vertex="1" parent="1">
          <mxGeometry x="180" y="440" width="260" height="30" as="geometry" />
        </mxCell>
        <mxCell id="nry7JoKtRvL3NIZeIg0n-65" value="Expiration Date *" style="text;html=1;align=left;verticalAlign=middle;whiteSpace=wrap;rounded=0;" vertex="1" parent="1">
          <mxGeometry x="190" y="440" width="250" height="30" as="geometry" />
        </mxCell>
        <mxCell id="nry7JoKtRvL3NIZeIg0n-66" value="" style="rounded=1;whiteSpace=wrap;html=1;" vertex="1" parent="1">
          <mxGeometry x="180" y="480" width="260" height="30" as="geometry" />
        </mxCell>
        <mxCell id="nry7JoKtRvL3NIZeIg0n-67" value="Description *" style="text;html=1;align=left;verticalAlign=middle;whiteSpace=wrap;rounded=0;" vertex="1" parent="1">
          <mxGeometry x="190" y="480" width="250" height="30" as="geometry" />
        </mxCell>
        <mxCell id="nry7JoKtRvL3NIZeIg0n-68" value="" style="rounded=1;whiteSpace=wrap;html=1;" vertex="1" parent="1">
          <mxGeometry x="180" y="520" width="260" height="30" as="geometry" />
        </mxCell>
        <mxCell id="nry7JoKtRvL3NIZeIg0n-69" value="Price per unit *" style="text;html=1;align=left;verticalAlign=middle;whiteSpace=wrap;rounded=0;" vertex="1" parent="1">
          <mxGeometry x="190" y="520" width="250" height="30" as="geometry" />
        </mxCell>
        <mxCell id="nry7JoKtRvL3NIZeIg0n-70" value="" style="html=1;verticalLabelPosition=bottom;labelBackgroundColor=#ffffff;verticalAlign=top;shadow=0;dashed=0;strokeWidth=2;shape=mxgraph.ios7.misc.down;strokeColor=#000000;" vertex="1" parent="1">
          <mxGeometry x="419" y="532" width="12" height="6" as="geometry" />
        </mxCell>
        <mxCell id="nry7JoKtRvL3NIZeIg0n-71" value="" style="html=1;verticalLabelPosition=bottom;labelBackgroundColor=#ffffff;verticalAlign=top;shadow=0;dashed=0;strokeWidth=2;shape=mxgraph.ios7.misc.down;strokeColor=#000000;" vertex="1" parent="1">
          <mxGeometry x="419" y="452" width="12" height="6" as="geometry" />
        </mxCell>
        <mxCell id="nry7JoKtRvL3NIZeIg0n-73" value="Ingredients" style="text;html=1;align=center;verticalAlign=middle;whiteSpace=wrap;rounded=0;" vertex="1" parent="1">
          <mxGeometry x="560" y="270" width="60" height="30" as="geometry" />
        </mxCell>
        <mxCell id="nry7JoKtRvL3NIZeIg0n-74" value="Categories" style="text;html=1;align=center;verticalAlign=middle;whiteSpace=wrap;rounded=0;" vertex="1" parent="1">
          <mxGeometry x="730" y="270" width="60" height="30" as="geometry" />
        </mxCell>
        <mxCell id="nry7JoKtRvL3NIZeIg0n-75" value="Allergens" style="text;html=1;align=center;verticalAlign=middle;whiteSpace=wrap;rounded=0;" vertex="1" parent="1">
          <mxGeometry x="560" y="395" width="60" height="30" as="geometry" />
        </mxCell>
        <mxCell id="nry7JoKtRvL3NIZeIg0n-76" value="Side Effects" style="text;html=1;align=center;verticalAlign=middle;whiteSpace=wrap;rounded=0;" vertex="1" parent="1">
          <mxGeometry x="720" y="395" width="80" height="30" as="geometry" />
        </mxCell>
        <mxCell id="nry7JoKtRvL3NIZeIg0n-77" value="" style="rounded=1;whiteSpace=wrap;html=1;" vertex="1" parent="1">
          <mxGeometry x="560" y="310" width="120" height="30" as="geometry" />
        </mxCell>
        <mxCell id="nry7JoKtRvL3NIZeIg0n-78" value="Ingredient 1" style="text;html=1;align=left;verticalAlign=middle;whiteSpace=wrap;rounded=0;" vertex="1" parent="1">
          <mxGeometry x="570" y="310" width="100" height="30" as="geometry" />
        </mxCell>
        <mxCell id="nry7JoKtRvL3NIZeIg0n-89" value="" style="rounded=1;whiteSpace=wrap;html=1;" vertex="1" parent="1">
          <mxGeometry x="720" y="310" width="120" height="30" as="geometry" />
        </mxCell>
        <mxCell id="nry7JoKtRvL3NIZeIg0n-90" value="Category 1*" style="text;html=1;align=left;verticalAlign=middle;whiteSpace=wrap;rounded=0;" vertex="1" parent="1">
          <mxGeometry x="730" y="310" width="100" height="30" as="geometry" />
        </mxCell>
        <mxCell id="nry7JoKtRvL3NIZeIg0n-91" value="" style="rounded=1;whiteSpace=wrap;html=1;" vertex="1" parent="1">
          <mxGeometry x="560" y="430" width="120" height="30" as="geometry" />
        </mxCell>
        <mxCell id="nry7JoKtRvL3NIZeIg0n-92" value="Allergens 1*" style="text;html=1;align=left;verticalAlign=middle;whiteSpace=wrap;rounded=0;" vertex="1" parent="1">
          <mxGeometry x="570" y="430" width="100" height="30" as="geometry" />
        </mxCell>
        <mxCell id="nry7JoKtRvL3NIZeIg0n-95" value="" style="rounded=1;whiteSpace=wrap;html=1;" vertex="1" parent="1">
          <mxGeometry x="720" y="430" width="120" height="30" as="geometry" />
        </mxCell>
        <mxCell id="nry7JoKtRvL3NIZeIg0n-96" value="Side Effects 1*" style="text;html=1;align=left;verticalAlign=middle;whiteSpace=wrap;rounded=0;" vertex="1" parent="1">
          <mxGeometry x="730" y="430" width="100" height="30" as="geometry" />
        </mxCell>
        <mxCell id="nry7JoKtRvL3NIZeIg0n-97" value="Add Ingredient" style="rounded=1;whiteSpace=wrap;html=1;fillColor=#CCCCCC;strokeColor=#000000;" vertex="1" parent="1">
          <mxGeometry x="560" y="350" width="110" height="30" as="geometry" />
        </mxCell>
        <mxCell id="nry7JoKtRvL3NIZeIg0n-98" value="Add Category&lt;span style=&quot;color: rgba(0, 0, 0, 0); font-family: monospace; font-size: 0px; text-align: start; text-wrap: nowrap;&quot;&gt;%3CmxGraphModel%3E%3Croot%3E%3CmxCell%20id%3D%220%22%2F%3E%3CmxCell%20id%3D%221%22%20parent%3D%220%22%2F%3E%3CmxCell%20id%3D%222%22%20value%3D%22Add%20Ingredient%22%20style%3D%22rounded%3D1%3BwhiteSpace%3Dwrap%3Bhtml%3D1%3BfillColor%3D%23CCCCCC%3BstrokeColor%3D%23000000%3B%22%20vertex%3D%221%22%20parent%3D%221%22%3E%3CmxGeometry%20x%3D%22560%22%20y%3D%22350%22%20width%3D%22110%22%20height%3D%2230%22%20as%3D%22geometry%22%2F%3E%3C%2FmxCell%3E%3C%2Froot%3E%3C%2FmxGraphModel%3E&lt;/span&gt;" style="rounded=1;whiteSpace=wrap;html=1;fillColor=#CCCCCC;strokeColor=#000000;" vertex="1" parent="1">
          <mxGeometry x="720" y="350" width="110" height="30" as="geometry" />
        </mxCell>
        <mxCell id="nry7JoKtRvL3NIZeIg0n-99" value="Add Allergen" style="rounded=1;whiteSpace=wrap;html=1;fillColor=#CCCCCC;strokeColor=#000000;" vertex="1" parent="1">
          <mxGeometry x="560" y="470" width="110" height="30" as="geometry" />
        </mxCell>
        <mxCell id="nry7JoKtRvL3NIZeIg0n-100" value="Add Side Effect" style="rounded=1;whiteSpace=wrap;html=1;fillColor=#CCCCCC;strokeColor=#000000;" vertex="1" parent="1">
          <mxGeometry x="720" y="470" width="110" height="30" as="geometry" />
        </mxCell>
        <mxCell id="nry7JoKtRvL3NIZeIg0n-101" value="Submit" style="rounded=1;whiteSpace=wrap;html=1;fillColor=#CCCCCC;strokeColor=#000000;" vertex="1" parent="1">
          <mxGeometry x="470" y="520" width="110" height="30" as="geometry" />
        </mxCell>
        <mxCell id="nry7JoKtRvL3NIZeIg0n-102" value="" style="shape=curlyBracket;whiteSpace=wrap;html=1;rounded=1;labelPosition=left;verticalLabelPosition=middle;align=right;verticalAlign=middle;" vertex="1" parent="1">
          <mxGeometry x="150" y="290" width="20" height="260" as="geometry" />
        </mxCell>
        <mxCell id="nry7JoKtRvL3NIZeIg0n-103" value="" style="endArrow=classic;html=1;rounded=0;" edge="1" parent="1">
          <mxGeometry width="50" height="50" relative="1" as="geometry">
            <mxPoint x="120" y="400" as="sourcePoint" />
            <mxPoint x="150" y="420" as="targetPoint" />
          </mxGeometry>
        </mxCell>
        <mxCell id="nry7JoKtRvL3NIZeIg0n-104" value="Different Input fields for receiving data from the user to create another medicine instance" style="text;html=1;align=center;verticalAlign=middle;whiteSpace=wrap;rounded=0;" vertex="1" parent="1">
          <mxGeometry x="10" y="380" width="105" height="30" as="geometry" />
        </mxCell>
        <mxCell id="nry7JoKtRvL3NIZeIg0n-105" value="" style="endArrow=classic;html=1;rounded=0;" edge="1" parent="1">
          <mxGeometry width="50" height="50" relative="1" as="geometry">
            <mxPoint x="640" y="600" as="sourcePoint" />
            <mxPoint x="640" y="500" as="targetPoint" />
          </mxGeometry>
        </mxCell>
        <mxCell id="nry7JoKtRvL3NIZeIg0n-106" value="Button that will create another Input Field for another entry of allergen.&amp;nbsp;" style="text;html=1;align=center;verticalAlign=middle;whiteSpace=wrap;rounded=0;" vertex="1" parent="1">
          <mxGeometry x="550" y="610" width="120" height="30" as="geometry" />
        </mxCell>
        <mxCell id="nry7JoKtRvL3NIZeIg0n-107" value="" style="endArrow=classic;html=1;rounded=0;exitX=1;exitY=0.25;exitDx=0;exitDy=0;" edge="1" parent="1" source="nry7JoKtRvL3NIZeIg0n-106">
          <mxGeometry width="50" height="50" relative="1" as="geometry">
            <mxPoint x="710" y="650" as="sourcePoint" />
            <mxPoint x="720" y="618" as="targetPoint" />
          </mxGeometry>
        </mxCell>
        <mxCell id="nry7JoKtRvL3NIZeIg0n-108" value="The same logic is followed for the other buttons as well" style="text;html=1;align=center;verticalAlign=middle;whiteSpace=wrap;rounded=0;" vertex="1" parent="1">
          <mxGeometry x="715" y="610" width="120" height="30" as="geometry" />
        </mxCell>
        <mxCell id="nry7JoKtRvL3NIZeIg0n-110" value="" style="endArrow=classic;html=1;rounded=0;" edge="1" parent="1">
          <mxGeometry width="50" height="50" relative="1" as="geometry">
            <mxPoint x="470" y="600" as="sourcePoint" />
            <mxPoint x="520" y="550" as="targetPoint" />
          </mxGeometry>
        </mxCell>
        <mxCell id="nry7JoKtRvL3NIZeIg0n-111" value="When the submit button is clicked, the data is validated to make sure all the required fields are filled, and then sends the request to the backend." style="text;html=1;align=center;verticalAlign=middle;whiteSpace=wrap;rounded=0;" vertex="1" parent="1">
          <mxGeometry x="261" y="610" width="209" height="30" as="geometry" />
        </mxCell>
      </root>
    </mxGraphModel>
  </diagram>
</mxfile>
